<svg width="657" height="601" viewBox="0 0 657 601" fill="none" xmlns="http://www.w3.org/2000/svg">
<path d="M562.043 518.296C567.665 524.975 551.627 537.055 526.34 540.087C452.494 548.939 338.321 555.053 247.315 550.661C196.348 548.201 132.082 544.829 118.745 529.04C116.848 526.795 116.043 518.354 122.684 517.724C166.785 513.544 195.79 516.892 291.558 515.197C429.456 512.757 557.517 512.92 562.043 518.296Z" fill="#DFE4EF"/>
<path opacity="0.5" d="M292.715 525.585C292.802 529.092 260.762 532.736 221.152 533.724C181.542 534.713 132.549 529.376 132.462 525.869C132.376 522.362 181.23 522.013 220.839 521.025C260.449 520.036 292.629 522.078 292.715 525.585ZM523.132 525.397C523.227 528.904 478.72 533.707 448.258 534.398C417.797 535.089 399.954 527.983 399.859 524.477C399.764 520.97 437.343 520.988 467.804 520.298C498.266 519.607 523.037 521.89 523.132 525.397Z" fill="#B9C1E1"/>
<path d="M179.698 404.058L156.77 410.485L160.718 423.938L184.222 418.783L179.698 404.058Z" fill="#FAB19E"/>
<path d="M146.986 410.189C146.986 410.189 143.471 410.729 142.853 412.613C142.235 414.498 149.122 445.99 156.145 454.335L160.138 453.86C160.138 453.86 155.26 411.499 146.986 410.189Z" fill="#28264A"/>
<path d="M167.446 406.867C167.565 406.945 170.046 418.082 169.313 418.666C168.579 419.249 167.307 420.704 167.557 421.137C167.806 421.569 173.551 421.435 173.347 422.208C173.142 422.981 165.52 425.779 165.471 426.262C165.422 426.744 162.119 444.508 162.119 444.508C162.119 444.508 165.791 448.8 163.6 451.804C161.409 454.808 158.412 454.32 158.412 454.32C158.412 454.32 144.139 424.606 146.265 410.711C146.761 407.466 165.026 405.296 167.446 406.867Z" fill="#FFD600"/>
<path d="M166.522 427.798C166.522 427.798 163.524 426.756 162.999 427.001C162.473 427.245 162.641 428.45 162.641 428.45C162.641 428.45 166.472 429.024 166.53 428.86C166.588 428.696 167.162 428.009 166.522 427.798ZM165.491 433.554C165.491 433.554 162.492 432.513 161.967 432.757C161.442 433.002 161.609 434.206 161.609 434.206C161.609 434.206 165.441 434.78 165.499 434.617C165.557 434.453 166.13 433.766 165.491 433.554ZM164.836 438.066C164.836 438.066 161.838 437.024 161.313 437.269C160.788 437.513 160.955 438.717 160.955 438.717C160.955 438.717 164.786 439.292 164.845 439.128C164.903 438.964 165.476 438.277 164.836 438.066Z" fill="#B9C1E1"/>
<path d="M247.297 393.967L229.99 409.151L240.139 419.536L258.586 405.25L247.297 393.967Z" fill="#FAB19E"/>
<path d="M221.11 412.918C221.11 412.918 218.237 414.848 218.613 416.786C218.989 418.723 240.644 444.003 251.023 448.559L254.354 446.49C254.354 446.49 229.142 410.679 221.11 412.918Z" fill="#28264A"/>
<path d="M237.74 401.523C237.885 401.543 245.584 410.465 245.216 411.287C244.849 412.111 244.429 413.934 244.865 414.217C245.301 414.5 250.364 412.013 250.562 412.788C250.76 413.563 245.332 419.201 245.526 419.652C245.72 420.103 251.518 437.324 251.518 437.324C251.518 437.324 256.909 439.643 256.432 443.228C255.955 446.812 253.039 447.612 253.039 447.612C253.039 447.612 225.665 426.963 220.722 413.681C219.568 410.579 234.806 401.117 237.74 401.523Z" fill="#FFD600"/>
<path d="M247.221 420.591C247.221 420.591 244.032 420.896 243.683 421.331C243.335 421.765 244.077 422.772 244.077 422.772C244.077 422.772 247.781 421.706 247.752 421.536C247.723 421.366 247.897 420.516 247.221 420.591ZM249.135 426.155C249.135 426.155 245.945 426.461 245.597 426.895C245.248 427.33 245.991 428.336 245.991 428.336C245.991 428.336 249.694 427.27 249.665 427.101C249.637 426.93 249.81 426.08 249.135 426.155ZM250.772 430.453C250.772 430.453 247.583 430.758 247.234 431.193C246.885 431.627 247.628 432.634 247.628 432.634C247.628 432.634 251.331 431.568 251.302 431.398C251.274 431.228 251.447 430.378 250.772 430.453Z" fill="#B9C1E1"/>
<path d="M263.513 289.791C287.95 313.126 321.552 350.631 319.406 363.949C315.475 388.353 254.769 412.059 254.769 412.059C239.061 409.304 240.894 394.345 240.894 394.345L279.236 359.409C279.236 359.409 216.677 324.596 209.389 304.642C208.601 302.486 207.976 300.474 207.497 298.594L263.513 289.791Z" fill="#E06020"/>
<path d="M207.499 298.581C207.977 300.484 208.595 302.49 209.383 304.651C216.664 324.608 279.246 359.403 279.246 359.403L240.898 394.353C240.898 394.353 239.071 409.295 254.758 412.047C254.758 412.047 259.088 410.35 265.526 407.418C270.502 397.979 269.378 380.723 269.378 378.306C269.378 375.425 278.458 369.844 280.342 366.553C282.254 363.261 294.483 360.38 297.435 356.909C300.388 353.437 285.403 359.043 283.519 358.323C281.608 357.629 285.628 356.909 287.736 354.774C289.845 352.665 283.519 354.98 280.146 354.774C276.772 354.594 260.03 335.395 257.949 332.489C255.897 329.608 252.622 307.531 254.337 304.933C255.658 302.953 268.338 301.23 274.382 300.51C270.643 296.73 266.988 293.103 263.502 289.786L207.499 298.581Z" fill="#D3581E"/>
<path d="M227.236 384.263C227.236 384.263 190.825 328.038 193.713 307.166C194.431 301.973 195.574 297.837 197.014 294.494L247.878 294.538L247.499 323.634C258.783 354.842 271.692 388.735 263.226 400.182C248.119 420.615 178.381 422.124 178.381 422.124C165.53 413.412 172.304 403.885 172.304 403.885L227.236 384.263Z" fill="#E06020"/>
<path d="M178.381 422.128C178.381 422.128 183.638 422 191.566 421.434C186.562 417.936 181.277 412.51 184.228 406.492C189.317 396.077 244.28 389.981 249.593 387.667C254.879 385.327 239.838 384.195 236.38 382.472C232.894 380.775 238.572 381.006 240.934 380.44C243.324 379.849 232.894 377.56 230.982 374.654C229.098 371.748 201.575 317.664 202.84 313.523C204.105 309.383 226.877 309.563 232.584 310.129C238.263 310.72 240.934 330.394 240.934 330.394L255.272 345.31C252.798 338.135 250.099 330.806 247.513 323.63L247.878 294.544L197.026 294.499C195.564 297.843 194.44 301.983 193.709 307.178C190.813 328.035 227.243 384.272 227.243 384.272L172.309 403.895C172.308 403.895 165.533 413.41 178.381 422.128Z" fill="#D3581E"/>
<path d="M246.162 291.474L246.012 321.852C246.012 321.852 253.62 345.043 255.272 345.31C256.924 345.577 248.384 321.708 248.384 321.708L250.748 291.473L246.162 291.474Z" fill="#C6501C"/>
<path d="M187.766 235.843C187.766 235.843 165.521 252.359 165.091 254.497C164.661 256.635 165.165 261.139 167.779 264.158C170.394 267.176 178.116 266.817 178.116 266.817L200.437 253.076L187.766 235.843Z" fill="#FAB19E"/>
<path d="M178.906 242.563C179.897 246.29 183.011 255.372 190.236 259.36L200.442 253.084L187.761 235.837C187.762 235.837 183.627 238.907 178.906 242.563Z" fill="#EBA090"/>
<path d="M115.086 246.41C115.086 246.41 167.537 248.633 172.297 249.692C177.056 250.75 182.576 251.893 183.052 255.631C183.658 260.404 180.808 265.197 177.393 266.411C170.555 268.842 111.521 255.456 111.521 255.456L115.086 246.41Z" fill="#FAB19E"/>
<path d="M170.758 250.047C170.135 249.905 171.588 255.371 172.076 254.206C172.565 253.039 171.013 250.104 170.758 250.047ZM171.462 250.42C171.364 250.464 177.107 257.012 177.191 256.067C177.274 255.121 172.445 249.972 171.462 250.42Z" fill="#EBA090"/>
<path d="M103.594 238.508C102.904 238.899 102.87 239.568 103.43 240.286C104.622 241.816 105.975 243.226 107.291 244.747C103.277 244.313 98.9473 243.923 94.9343 243.489C94.7694 243.946 95.0396 244.398 95.3659 244.658C95.6923 244.917 96.1031 245.066 96.5076 245.205C98.0932 245.749 99.7162 246.201 101.364 246.558C98.5327 246.587 96.4997 246.546 93.8404 246.673C93.7929 247.045 94.0114 247.563 94.3539 247.768C94.6967 247.973 95.4391 248.121 95.8396 248.199C97.6595 248.556 99.1476 248.847 100.967 249.204C99.0055 249.345 96.9706 249.684 95.0088 249.825C94.9001 250.097 95.1294 250.568 95.3732 250.754C95.6174 250.939 95.9281 251.04 96.2393 251.096C97.8196 251.379 99.9262 251.555 101.199 251.735C99.8931 251.949 98.5647 252.296 97.2594 252.509C97.3146 253.651 98.8671 253.265 99.8581 253.438C103.972 254.155 108.286 254.924 112.4 255.641C112.4 255.641 115.507 256.174 117.886 256.396C117.9 256.274 119.415 247.75 119.6 247.04C118.46 246.871 116.061 246.471 116.061 246.471C113.175 242.212 110.275 242.403 103.594 238.508Z" fill="#FAB19E"/>
<path d="M102.515 246.623C102.506 246.715 102.034 246.752 101.461 246.706C100.888 246.66 100.43 246.549 100.439 246.457C100.447 246.365 100.919 246.328 101.492 246.374C102.066 246.42 102.524 246.531 102.515 246.623ZM102.43 249.341C102.421 249.432 101.949 249.469 101.376 249.424C100.802 249.378 100.345 249.266 100.353 249.175C100.362 249.083 100.834 249.046 101.407 249.092C101.981 249.138 102.438 249.249 102.43 249.341ZM102.582 251.886C102.573 251.978 102.102 252.015 101.528 251.97C100.955 251.924 100.497 251.812 100.506 251.721C100.515 251.629 100.986 251.592 101.56 251.637C102.133 251.683 102.591 251.795 102.582 251.886ZM104.314 252.002C104.214 251.993 104.259 250.86 104.415 249.473C104.572 248.086 104.78 246.969 104.88 246.978C104.98 246.988 104.934 248.12 104.778 249.507C104.622 250.895 104.414 252.012 104.314 252.002ZM111.006 248.85C111.003 248.873 110.907 248.881 110.731 248.874C110.557 248.86 110.297 248.865 109.994 248.775C109.38 248.653 108.536 248.262 107.942 247.533C107.337 246.814 107.131 246.001 107.047 245.438C106.976 244.865 107.036 244.509 107.085 244.511C107.136 244.511 107.169 244.858 107.301 245.398C107.445 245.929 107.68 246.679 108.233 247.332C108.773 247.993 109.506 248.376 110.07 248.55C110.345 248.664 110.59 248.693 110.753 248.745C110.917 248.791 111.008 248.827 111.006 248.85ZM115.888 247.084C115.913 247.079 115.955 247.178 116.011 247.361C116.066 247.544 116.144 247.812 116.183 248.151C116.287 248.824 116.303 249.779 116.099 250.806C115.708 252.876 114.652 254.322 114.573 254.263C114.484 254.222 115.364 252.75 115.74 250.747C116.159 248.747 115.766 247.101 115.888 247.084Z" fill="#DB8F82"/>
<path d="M217.894 206.952C217.894 206.952 208.332 207.623 207.738 209.017C207.144 210.412 187.786 233.77 177.442 239.531C174.058 241.415 194.065 258.23 195.649 257.506C197.233 256.781 215.176 247.543 216.012 243.921C216.847 240.298 217.894 206.952 217.894 206.952Z" fill="#FFD600"/>
<path d="M187.786 252.398C191.503 255.462 194.963 257.802 195.644 257.499C197.227 256.775 215.169 247.55 216.015 243.914C216.383 242.281 216.807 234.521 217.156 226.542C211.286 234.066 199.251 248.072 187.786 252.398Z" fill="#E4C012"/>
<path d="M266.979 194.714L280.356 178.058L265.677 125.414L274.686 124.312C274.686 124.312 302.822 174.85 302.168 179.362C301.513 183.874 284.719 205.662 284.719 205.662L266.979 194.714Z" fill="#FAB19E"/>
<path d="M289.134 178.784C289.134 178.206 282.113 177.694 280.236 177.578L280.362 178.041C281.102 178.553 284.279 180.699 285.073 180.435C285.993 180.121 283.683 178.751 283.683 178.751C283.683 178.751 289.097 179.461 289.134 178.784ZM275.976 183.506L266.987 194.716L284.712 205.663C284.712 205.663 291.245 197.193 296.317 189.714C294.205 191.101 291.624 192.372 289.242 192.323C285.001 192.207 278.304 185.982 275.976 183.506Z" fill="#EBA090"/>
<path d="M252.66 203.072C252.66 203.072 260.201 202.004 272.249 186.204C273.262 184.875 289.134 203.341 289.134 203.341C289.134 203.341 268.267 224.971 259.525 241.485C255.803 248.514 252.66 203.072 252.66 203.072Z" fill="#FFD600"/>
<path d="M254.389 222.322C255.671 233.731 257.512 245.288 259.534 241.491C268.269 224.964 289.134 203.335 289.134 203.335C289.134 203.335 287.87 201.932 286.047 199.934C281.86 205.316 268.702 220.737 254.389 222.322Z" fill="#E4C012"/>
<path d="M276.968 126.318C278.708 124.623 280.492 123.569 280.952 123.963L289.507 131.309C289.966 131.705 288.929 133.399 287.189 135.095C285.449 136.79 283.666 137.845 283.206 137.45L274.651 130.103C274.191 129.709 275.228 128.014 276.968 126.318Z" fill="#B9C1E1"/>
<path opacity="0.5" d="M274.652 130.1L283.203 137.446C283.437 137.66 284.078 137.454 284.863 136.954C283.997 135.798 282.923 134.006 283.175 132.618C283.42 131.256 284.621 129.228 285.519 127.877L280.951 123.967C280.5 123.571 278.712 124.615 276.964 126.313C275.233 128.003 274.183 129.712 274.652 130.1Z" fill="#929ED3"/>
<path d="M243.323 103.132C243.323 103.132 233.971 100.629 231.281 100.764C228.591 100.9 234.31 98.5718 234.295 98.2631C234.28 97.9542 227.939 99.1976 227.927 97.9486C227.915 96.6995 234.546 95.4468 237.519 97.9235C238.107 98.4131 233.553 90.3583 235.658 91.1879C237.763 92.0179 239.499 95.5061 240.088 93.9782C241.181 91.1442 238.326 82.7481 239.62 84.5994C240.914 86.4504 241.326 91.0411 242.106 90.5086C242.885 89.9759 244.045 82.7355 244.456 86.3795C244.866 90.0234 250.293 97.2023 250.008 99.918C249.723 102.633 246.909 104.67 243.323 103.132Z" fill="#DFE4EF"/>
<path d="M244.602 98.5255C246.85 96.3351 249.294 95.0934 250.061 95.7523L284.529 125.35C284.533 125.353 284.539 125.353 284.543 125.356C285.314 126.017 284.11 128.336 281.864 130.525L281.711 130.674C280.392 131.926 279.017 132.851 277.967 133.243C277.267 133.512 276.708 133.544 276.408 133.29L276.404 133.294L241.921 103.684C241.154 103.025 242.355 100.716 244.602 98.5255Z" fill="#E06020"/>
<path d="M241.927 103.681L276.402 133.302L276.42 133.293C276.699 133.547 277.264 133.52 277.974 133.24C279.017 132.841 280.394 131.934 281.7 130.673L281.865 130.532C284.106 128.332 285.319 126.013 284.545 125.364C284.535 125.348 284.535 125.348 284.535 125.348L284.184 125.047C282.383 127.547 279.921 130.14 277.692 129.679C274.105 128.953 249.391 107.424 242.368 101.263C241.677 102.392 241.485 103.301 241.927 103.681Z" fill="#D3581E"/>
<path d="M252.943 100.372L254.337 102.069L254.97 100.024L255.022 100.006L251.253 96.7694L251.146 96.7406L251.954 98.7279L250.625 100.471L252.943 100.372Z" fill="#FFD600"/>
<path d="M277.115 133.276L277.967 133.243C279.017 132.851 280.392 131.927 281.711 130.674L281.657 128.85L279.856 130.172L279.661 130.114L277.761 129.59L277.628 129.553L277.685 129.68L278.368 131.374L278.444 131.548L277.115 133.276Z" fill="#E4C012"/>
<path d="M262.843 112.688L263.657 114.675L262.329 116.416L264.647 116.321L266.046 118.015L266.664 115.969L268.857 115.275L266.921 114.105L266.878 111.983L265.063 113.305L262.843 112.688Z" fill="#E4C012"/>
<path d="M251.286 111.72L253.741 113.829L253.792 113.763L256.112 113.744L254.692 112.072L255.404 110.049L253.222 110.763L251.342 109.523L251.406 111.636L251.286 111.72Z" fill="#FFD600"/>
<path d="M276.514 123.763L277.824 122.003L280.145 122.001L278.871 120.485L276.859 118.758L275.375 117.78L275.439 119.893L273.557 121.146L275.793 121.74L276.514 123.763Z" fill="#FFD600"/>
<path d="M248.723 104.366L249.509 105.463L248.965 106.678L250.349 106.334L251.444 107.181L251.514 105.871L252.733 105.181L251.392 104.715L251.052 103.441L250.153 104.463L248.723 104.366Z" fill="#E4C012"/>
<path d="M261.221 109.165L262.607 108.811L263.709 109.664L263.769 108.359L264.355 108.021L262.706 106.605L262.41 106.943L260.982 106.855L261.768 107.951L261.221 109.165Z" fill="#FFD600"/>
<path d="M266.333 122.002L267.119 123.1L266.576 124.314L267.959 123.97L269.054 124.818L269.124 123.507L270.343 122.817L269.003 122.351L268.662 121.077L267.763 122.1L266.333 122.002Z" fill="#FFD600"/>
<path d="M272.761 111.28C272.761 111.28 273.894 108.953 270.162 108.714C266.43 108.476 265.773 110.687 266.731 111.365C267.689 112.043 268.249 112.543 270.176 111.878C270.176 111.878 268.945 113.067 269.895 113.974C270.846 114.881 272.205 114.758 272.205 114.758C272.205 114.758 270.873 115.608 271.073 116.222C271.273 116.837 272.765 117.709 274.484 117.27C274.484 117.27 273.391 118.606 275.399 119.346C277.407 120.085 277.278 119.451 277.278 119.451L278.788 121.307C278.788 121.307 280.758 118.719 277.482 116.585C277.482 116.585 278.123 114.278 275.071 114.198C275.071 114.198 276.277 111.122 272.761 111.28Z" fill="#FAB19E"/>
<path d="M272.739 111.303C272.734 111.412 272.119 111.445 271.408 111.623C270.692 111.79 270.155 112.043 270.091 111.968C270.015 111.888 270.519 111.458 271.307 111.274C272.093 111.08 272.75 111.213 272.739 111.303ZM275.137 114.152C275.13 114.204 274.964 114.231 274.706 114.283C274.447 114.335 274.09 114.415 273.694 114.509C272.9 114.697 272.246 114.852 272.206 114.758C272.166 114.667 272.77 114.356 273.595 114.16C274.007 114.062 274.396 114.017 274.683 114.029C274.971 114.04 275.144 114.106 275.137 114.152ZM277.482 116.585C277.468 116.638 277.29 116.641 277.019 116.678C276.746 116.717 276.373 116.799 275.964 116.922C275.146 117.165 274.49 117.427 274.435 117.338C274.381 117.255 274.972 116.838 275.844 116.579C276.277 116.448 276.702 116.397 277.01 116.423C277.321 116.45 277.496 116.542 277.482 116.585Z" fill="#DB8F82"/>
<path d="M259.709 119.428C261.291 120.912 261.895 122.118 262.951 125.099C264.006 128.08 267.068 128.118 267.068 128.118C268.007 127.117 269.649 125.657 266.668 122.17C263.289 118.215 258.126 117.944 259.709 119.428Z" fill="#FAB19E"/>
<path d="M264.147 119.85C264.182 119.813 264.575 120.073 265.183 120.531C265.764 121.013 266.567 121.696 267.273 122.601C267.976 123.501 268.441 124.453 268.523 125.195C268.639 125.938 268.378 126.39 268.33 126.358C268.28 126.343 268.424 125.917 268.248 125.237C268.103 124.558 267.631 123.681 266.952 122.811C265.559 121.079 264.051 119.946 264.147 119.85Z" fill="#DB8F82"/>
<path d="M228.692 63.1053C226.819 64.0178 225.005 65.1188 224.083 66.6435C223.973 66.8264 223.726 67.4202 223.993 66.7165C224.261 66.0085 224.059 66.5734 224.024 66.7563C223.978 66.9955 223.958 67.2413 223.967 67.4907C223.992 68.1883 224.246 68.9053 224.678 69.5965C225.584 71.0445 227.155 72.2841 228.332 73.6496C229.595 75.1138 229.904 76.4386 229.374 77.8506C229.056 78.6994 228.7 79.4815 227.94 80.146C227.072 80.9049 225.921 81.4704 224.704 81.9484C225.065 81.8068 224.758 80.977 225.132 80.8303C226.199 80.4116 227.211 79.9268 228.031 79.3018C228.468 78.9688 228.85 78.5976 229.137 78.1823C229.194 78.0988 229.249 78.0147 229.298 77.9279C229.09 78.2947 229.251 78.0475 229.242 77.9171C229.227 77.6975 229.262 77.4858 229.233 77.2628C229.037 75.7697 227.612 74.4127 226.32 73.1215C224.974 71.7747 223.705 70.3609 223.554 68.8224C223.451 67.7768 223.879 66.7718 224.325 65.8654C225.162 64.1662 227.115 62.964 229.12 61.9878C228.762 62.1619 229.061 62.9262 228.692 63.1053Z" fill="#FFD600"/>
<path d="M188.089 72.9314C188.203 73.4784 188.331 74.0223 188.487 74.5604C188.6 74.9502 188.738 75.3298 188.865 75.7159C188.889 75.7888 189.053 76.1881 188.879 75.784C188.641 75.2325 189.232 76.3994 189.151 76.2608C189.767 77.3123 190.568 78.2828 191.602 79.0184C193.663 80.4846 196.132 80.5617 198.617 80.2775C200.966 80.009 203.431 79.5615 205.665 80.5371C207.267 81.2367 208.428 82.503 209.216 83.9332C210.423 86.123 211.19 88.4927 211.557 90.9168C211.476 90.3845 210.952 89.9047 210.871 89.3666C210.763 88.6536 210.634 87.944 210.46 87.2421C210.372 86.8887 210.275 86.5371 210.164 86.1895C210.114 86.0329 210.06 85.8778 210.005 85.7225C209.954 85.5721 209.899 85.4232 209.839 85.2756C209.937 85.494 210.035 85.7125 210.133 85.9309C209.902 85.0843 209.076 84.1371 208.435 83.5044C207.073 82.1592 205.217 81.4951 203.223 81.4787C200.825 81.4588 198.471 82.1622 196.066 81.9384C193.38 81.6884 191.269 80.14 189.969 78.0293C188.719 76.0008 187.881 73.6589 187.403 71.3815C187.515 71.9158 187.976 72.3922 188.089 72.9314Z" fill="#C9A923"/>
<path d="M213.165 72.6549C212.588 72.4776 212.016 72.2885 211.454 72.0754C211.047 71.9211 210.655 71.7444 210.253 71.5779C210.177 71.5467 209.766 71.3438 210.181 71.5561C210.747 71.846 209.561 71.153 209.701 71.2452C208.644 70.5464 207.7 69.6896 207.042 68.6537C205.73 66.5894 205.978 64.3405 206.618 62.1264C207.224 60.0333 208.039 57.8589 207.281 55.7025C206.739 54.1568 205.522 52.9347 204.079 52.0286C201.868 50.6409 199.404 49.6276 196.827 48.9697C197.393 49.1144 197.843 49.6539 198.415 49.7999C199.173 49.9934 199.924 50.2046 200.662 50.4568C201.032 50.5834 201.4 50.7194 201.762 50.8661C201.925 50.9326 202.085 51.0021 202.246 51.0728C202.402 51.1395 202.556 51.2097 202.708 51.2832C202.485 51.165 202.261 51.047 202.038 50.929C202.924 51.2519 203.839 52.1278 204.439 52.7935C205.713 54.208 206.184 55.9808 205.934 57.79C205.635 59.9668 204.557 62.006 204.477 64.2159C204.388 66.6848 205.782 68.8053 207.894 70.2672C209.925 71.6723 212.349 72.7461 214.752 73.4847C214.189 73.3112 213.734 72.8296 213.165 72.6549Z" fill="#DFE4EF"/>
<path d="M221.222 92.3524C224.918 92.1758 228.382 90.1953 230.176 87.2335C230.196 87.1995 230.986 87.4299 231.06 87.4485C231.129 87.4659 231.924 87.7031 231.938 87.6799C230.144 90.6414 226.681 92.6223 222.984 92.7988C222.722 92.8112 222.353 92.6473 222.1 92.5836C221.893 92.531 221.685 92.4783 221.478 92.4236C221.408 92.4047 221.292 92.3488 221.222 92.3524Z" fill="#B9C1E1"/>
<path d="M187.946 62.9164C189.318 66.061 192.482 68.4243 196.125 69.0249C196.167 69.0318 196.182 69.79 196.187 69.8595C196.191 69.9252 196.201 70.6901 196.23 70.6949C192.587 70.0941 189.423 67.731 188.051 64.5864C187.953 64.3636 188.004 63.9908 187.989 63.7518C187.977 63.5552 187.965 63.3583 187.955 63.1614C187.951 63.0945 187.972 62.9759 187.946 62.9164Z" fill="#B9C1E1"/>
<path d="M270.336 291.474C270.336 291.474 225.213 299.655 214.881 299.173C204.549 298.692 189.079 297.315 190.211 295.323C203.706 271.587 211.884 208.155 217.894 206.952C223.903 205.749 252.729 202.022 253.678 203.327C254.627 204.632 270.336 291.474 270.336 291.474Z" fill="#FFD600"/>
<path d="M256.427 219.898C256.427 219.898 261.207 251.689 262.418 250.506C263.629 249.323 259.514 220.281 256.427 219.898Z" fill="#E06020"/>
<path d="M214.874 299.175C225.221 299.659 270.331 291.467 270.331 291.467C270.331 291.467 266.196 268.593 262.042 246.168C263.078 257.073 263.6 271.043 264.07 272.854C264.952 276.296 257.025 272.448 255.281 272.035C253.537 271.641 257.907 277.897 262.081 281.124C266.274 284.368 256.574 282.127 252.655 281.984C248.736 281.858 255.693 285.551 260.768 287.415C265.843 289.28 218.871 291.61 216.892 290.588C214.913 289.566 218.225 287.164 222.027 284.081C225.848 280.98 216.677 284.942 215.051 282.343C213.718 280.191 212.791 218.219 211.614 222.827C206.332 243.5 199.545 278.903 190.203 295.321C189.086 297.31 204.547 298.691 214.874 299.175Z" fill="#E4C012"/>
<path d="M211.8 222.146C211.8 222.146 201.973 257.825 203.356 257.073C204.74 256.322 214.339 222.647 211.8 222.146Z" fill="#E06020"/>
<path d="M205.014 254.901C205.014 254.901 196.831 296.985 197.933 297.439C198.975 297.869 206.419 256.352 205.014 254.901Z" fill="#C9A923"/>
<path d="M225.476 189.253L235.745 188.278L240.398 203.307C240.398 203.307 237.332 209.438 232.166 208.934C226.975 208.44 224.491 204.361 224.491 204.361L225.476 189.253Z" fill="#FAB19E"/>
<path d="M225.023 196.327C227.087 197.193 229.978 198.163 232.028 197.842C234.204 197.509 236.458 196.12 237.866 195.118L235.753 188.27L225.479 189.247L225.023 196.327Z" fill="#EBA090"/>
<path d="M240.006 200.018C240.006 200.018 237.209 204.14 232.546 204.691C227.883 205.243 224.213 202.027 224.213 202.027C224.213 202.027 221.866 205.118 222.043 205.886C222.22 206.655 229.429 212.271 234.238 211.861C238.245 211.519 242.579 204.216 242.328 203.543C242.076 202.869 240.006 200.018 240.006 200.018Z" fill="#E06020"/>
<path d="M243.365 180.755L242.123 171.037C250.337 165.759 250.442 179.977 243.365 180.755Z" fill="#FAB19E"/>
<path d="M242.13 171.037L243.36 180.75C245.215 180.542 246.583 179.397 247.461 177.934C246.372 177.836 245.292 177.6 244.899 177.043C244.285 176.095 243.927 172.028 243.807 170.182C243.303 170.37 242.736 170.656 242.13 171.037Z" fill="#EBA090"/>
<path d="M246.114 173.046C240.16 176.874 250.079 175.291 245.337 174.563C245.337 174.563 247.143 172.765 246.114 173.046Z" fill="#3A3A60"/>
<path d="M215.101 183.57L214.028 173.835C204.765 170.298 208.007 184.203 215.101 183.57Z" fill="#FAB19E"/>
<path d="M210.43 181.599C211.61 182.88 213.215 183.729 215.1 183.564L214.018 173.836C213.465 173.616 212.948 173.484 212.486 173.393C212.792 175.334 213.221 179.143 212.334 180.538C211.953 181.126 211.239 181.449 210.43 181.599Z" fill="#EBA090"/>
<path d="M211.521 178.111C211.521 178.111 209.431 176.773 210.455 176.842C216.869 179.294 207.26 179.681 211.521 178.111Z" fill="#3A3A60"/>
<path d="M240.877 161.845C240.877 161.845 224.741 168.481 213.507 165.155C213.507 165.155 208.86 196.698 230.409 196.127C251.908 195.557 240.877 161.845 240.877 161.845Z" fill="#FAB19E"/>
<path d="M213.301 155.104C215.508 152.202 222.347 149.723 229.553 148.664C240.977 146.989 237.802 156.156 237.802 156.156C237.802 156.156 240.487 156.114 240.806 156.503C247.131 164.215 243.966 171.127 243.966 171.127C243.966 171.127 243.443 174.559 242.97 172.621C242.491 170.685 239.444 162.654 239.444 162.654C239.444 162.654 236.79 165.047 230.287 165.895C223.773 166.741 213.462 166.038 213.462 166.038C213.462 166.038 214.216 175.856 213.039 175.111C213.039 175.111 210.611 173.004 210.004 169.942C209.564 167.702 207.641 160.031 213.301 155.104Z" fill="#3A3A60"/>
<path d="M223.45 171.25C223.98 172.011 221.441 174 217.771 174.47C214.102 174.94 222.238 169.504 223.45 171.25ZM230.935 170.386C231.096 169.495 234.438 169.561 237.515 171.447C240.592 173.335 230.567 172.427 230.935 170.386ZM225.212 178.649C225.848 177.701 224.898 176.355 222.601 175.552C221.202 174.526 215.605 178.512 219.684 178.124C223.128 174.973 223.275 179.747 225.212 178.649ZM236.567 177.311C237.203 176.362 236.254 175.016 233.956 174.214C232.558 173.186 226.964 177.174 231.04 176.785C234.484 173.635 234.63 178.408 236.567 177.311ZM228.65 178.205C225.166 190.516 235.947 182.411 228.907 183.517C228.907 183.517 229.137 178.074 228.65 178.205ZM234.547 187.217C232.846 186.102 230.668 189.356 227.558 188.005C224.928 188.837 227.386 191.122 230.978 190.601C233.883 190.088 235.558 188.424 234.547 187.217Z" fill="#3A3A60"/>
<path d="M440.448 498.649L453.101 498.289L453.242 514.896C453.242 514.896 452.102 517.463 451.676 518.337C450.616 520.51 425.896 519.09 427.714 517.904C429 517.066 436.822 514.122 441.543 512.984L440.448 498.649Z" fill="#FAB19E"/>
<path d="M441.371 510.757L440.442 498.654L453.111 498.291L453.187 507.173C450.41 508.568 444.573 511.225 441.371 510.757Z" fill="#DB8F82"/>
<path d="M428.648 517.469C429.083 518.325 442.262 515.81 443.817 515.49C452.146 513.773 453.271 509.632 453.312 509.662C455.03 510.853 457.667 519.696 455.735 521.651C455.78 522.358 455.758 523.934 454.727 524.574C454.39 524.784 452.485 525.104 449.69 525.424C449.501 525.445 449.113 524.533 448.73 523.66C444.086 524.396 420.294 527.99 418.084 525.132C417.437 524.296 417.567 521.599 420.974 520.058C423.239 519.033 425.659 517.908 428.648 517.469Z" fill="#FFD600"/>
<path d="M449.698 525.424C449.507 525.443 449.112 524.528 448.735 523.661C444.094 524.402 420.296 527.988 418.09 525.138C437.825 524.871 450.183 521.33 450.183 521.33C450.183 521.33 450.049 523.12 451.156 524.156C451.952 524.92 454.409 523.742 455.655 523.058C455.542 523.65 455.27 524.235 454.734 524.57C454.39 524.777 452.491 525.107 449.698 525.424Z" fill="#E4C012"/>
<path d="M447.795 237.411C447.795 237.411 428.305 230.283 420.221 228.248C419.729 227.857 360.737 195.758 360.737 195.758L351.733 203.494C351.733 203.494 414.745 247.071 414.943 247.073L436.79 257.221L447.795 237.411Z" fill="#FAB19E"/>
<path d="M436.313 233.339C433.022 236.128 425.366 243.521 425.056 251.775L436.784 257.23L447.798 237.405C447.798 237.405 442.507 235.47 436.313 233.339ZM416.931 226.71C416.36 226.259 414.697 232.692 415.888 231.71C417.08 230.727 417.164 226.895 416.931 226.71ZM417.451 227.444C417.322 227.443 419.522 237.102 420.161 236.153C420.799 235.203 418.741 227.455 417.451 227.444Z" fill="#EBA090"/>
<path d="M353.304 181.878C352.353 181.952 351.929 182.636 352.096 183.661C352.453 185.844 353.049 187.981 353.541 190.215C349.59 187.804 345.282 185.284 341.332 182.874C340.893 183.271 340.912 183.877 341.103 184.307C341.294 184.738 341.637 185.095 341.98 185.438C343.324 186.78 344.76 188.046 346.278 189.223C343.296 187.872 341.191 186.838 338.331 185.675C338.064 186.041 337.992 186.69 338.231 187.072C338.47 187.454 339.162 187.971 339.536 188.248C341.234 189.509 342.623 190.54 344.321 191.801C342.184 190.992 339.856 190.355 337.718 189.546C337.445 189.778 337.411 190.384 337.559 190.697C337.706 191.01 337.973 191.267 338.266 191.477C339.757 192.544 341.861 193.756 343.089 194.564C341.597 194.152 340.003 193.867 338.511 193.455C337.904 194.677 339.755 195.03 340.693 195.694C344.584 198.451 348.654 201.36 352.546 204.117C352.546 204.117 355.489 206.191 357.852 207.583C357.938 207.463 364.49 199.273 365.098 198.62C364.003 197.886 361.723 196.298 361.723 196.298C361.181 190.429 358.033 189.215 353.304 181.878Z" fill="#FAB19E"/>
<path d="M347.446 189.852C347.383 189.943 346.867 189.752 346.293 189.425C345.72 189.097 345.305 188.757 345.368 188.666C345.43 188.574 345.946 188.765 346.52 189.092C347.094 189.42 347.508 189.76 347.446 189.852ZM345.773 192.657C345.711 192.748 345.195 192.557 344.621 192.23C344.047 191.902 343.633 191.562 343.695 191.47C343.758 191.379 344.273 191.57 344.847 191.897C345.421 192.225 345.836 192.565 345.773 192.657ZM344.449 195.397C344.387 195.489 343.871 195.298 343.297 194.97C342.724 194.643 342.309 194.303 342.372 194.211C342.434 194.119 342.95 194.311 343.524 194.638C344.098 194.966 344.512 195.306 344.449 195.397ZM346.196 196.363C346.096 196.304 346.804 195.141 347.776 193.764C348.748 192.387 349.616 191.318 349.716 191.377C349.815 191.436 349.108 192.599 348.135 193.976C347.164 195.353 346.295 196.422 346.196 196.363ZM355.042 196.325C355.026 196.347 354.92 196.308 354.741 196.215C354.566 196.116 354.29 195.994 354.025 195.752C353.455 195.325 352.798 194.504 352.6 193.451C352.385 192.403 352.644 191.451 352.884 190.821C353.143 190.185 353.413 189.841 353.464 189.867C353.517 189.893 353.349 190.272 353.173 190.902C353.014 191.529 352.824 192.428 353.022 193.382C353.203 194.338 353.748 195.096 354.237 195.554C354.458 195.807 354.698 195.958 354.838 196.091C354.983 196.219 355.058 196.302 355.042 196.325ZM361.185 196.855C361.214 196.862 361.201 196.985 361.152 197.205C361.104 197.424 361.029 197.742 360.873 198.116C360.589 198.873 360.049 199.881 359.238 200.856C357.622 202.834 355.673 203.834 355.625 203.733C355.555 203.647 357.335 202.534 358.896 200.62C360.499 198.729 361.047 196.813 361.185 196.855Z" fill="#DB8F82"/>
<path d="M451.037 317.473C451.037 317.473 424.635 388.551 423.72 395.041C422.805 401.53 439.096 506.751 439.096 506.751L454.343 504.598L458.176 400.532C458.176 400.532 484.427 368.583 487.723 356.104C491.018 343.624 487.723 320.162 487.723 320.162L451.037 317.473Z" fill="#9B69CC"/>
<path d="M432.901 402.462C434.738 405.64 445.252 411.83 444.197 413.128C443.178 414.393 436.739 430.1 456.766 438.487L458.167 400.532C458.167 400.532 484.433 368.584 487.726 356.104C491.018 343.624 487.726 320.162 487.726 320.162L451.036 317.467C451.036 317.467 448.835 323.374 445.688 331.943C449.745 331.444 454.547 330.978 456.439 332.459C459.295 334.706 450.709 393.859 447.435 395.723C444.16 397.603 437.194 395.906 438.831 398.352C440.468 400.782 448.253 400.964 445.379 402.462C442.523 403.96 431.063 399.284 432.901 402.462Z" fill="#895DBE"/>
<path d="M447.331 227.554C449.304 219.168 451.953 217.758 455.197 214.4C457.042 212.497 461.449 210.469 463.67 205.658C467.543 197.282 476.762 198.355 483.964 202.728C488.164 205.277 496.911 205.307 496.234 210.019C495.489 215.212 509.173 215.889 513.965 224.806C518.749 233.73 505.485 236.762 517.24 249.442C529.002 262.129 538.053 275.431 520.435 286.498C510.921 292.467 498.764 293.394 487.979 287.217C478.802 281.963 470.601 271.573 465.875 254.775C461.572 239.516 444.242 240.701 447.331 227.554Z" fill="#3A3A60"/>
<path d="M524.947 439.828L528.371 428.679L545.731 433.545C545.731 433.545 548.065 435.31 548.848 435.944C550.796 437.522 541.89 458.664 541.2 456.722C540.711 455.348 539.992 447.639 540.222 443.178L524.947 439.828Z" fill="#FAB19E"/>
<path d="M537.849 442.659L524.95 439.834L528.377 428.672L537.661 431.273C538.282 434.115 539.299 440.006 537.849 442.659Z" fill="#DB8F82"/>
<path d="M541.026 455.776C542.049 455.654 543.385 443.4 543.518 441.947C544.23 434.163 540.25 431.938 540.294 431.911C542.051 430.77 552.064 431.125 553.523 433.399C554.273 433.571 555.91 434.064 556.268 435.156C556.385 435.513 556.147 437.271 555.641 439.806C555.606 439.977 554.539 440.042 553.514 440.114C552.887 444.387 549.487 466.226 545.844 467.296C544.778 467.609 542.005 466.685 541.421 463.249C541.033 460.966 540.586 458.516 541.026 455.776Z" fill="#FFD600"/>
<path d="M555.644 439.8C555.606 439.972 554.533 440.041 553.516 440.11C552.895 444.382 549.486 466.224 545.852 467.292C544.892 467.567 542.613 466.878 541.69 464.312C542.895 464.949 544.251 465.052 545.645 463.984C550.315 460.436 551.52 438.146 551.52 438.146C551.52 438.146 553.347 438.8 554.759 438.146C555.794 437.681 555.305 435.183 554.966 433.891C555.55 434.167 556.077 434.58 556.265 435.148C556.378 435.51 556.152 437.267 555.644 439.8Z" fill="#E4C012"/>
<path d="M484.201 409.004C484.201 409.004 521.215 356.853 518.534 337.479C517.867 332.659 516.806 328.819 515.47 325.716H465.04L465.391 352.724C454.917 381.694 442.935 413.155 450.792 423.781C464.816 442.747 529.551 444.149 529.551 444.149C541.48 436.061 535.192 427.217 535.192 427.217L484.201 409.004Z" fill="#9B69CC"/>
<path d="M529.551 444.152C529.551 444.152 524.671 444.033 517.311 443.508C521.957 440.261 526.863 435.224 524.123 429.638C519.399 419.97 468.38 414.312 463.447 412.163C458.541 409.991 472.503 408.94 475.713 407.341C478.949 405.765 473.677 405.98 471.485 405.455C469.267 404.906 478.949 402.781 480.723 400.084C482.472 397.386 508.021 347.182 506.846 343.339C505.672 339.495 484.533 339.662 479.236 340.187C473.964 340.737 471.485 358.999 471.485 358.999L458.176 372.845C460.472 366.185 462.977 359.381 465.378 352.721L465.039 325.721H515.458C516.815 328.824 517.859 332.668 518.538 337.49C521.226 356.851 484.194 409.012 484.194 409.012L535.188 427.227C535.188 427.227 541.477 436.06 529.551 444.152Z" fill="#895DBE"/>
<path d="M466.632 322.871L466.771 351.071C466.771 351.071 459.709 372.598 458.176 372.845C456.643 373.093 464.569 350.936 464.569 350.936L462.375 322.871H466.632Z" fill="#7751AF"/>
<path d="M467.692 241.257C467.692 241.257 455.55 240.69 443.015 234.371C441.452 233.583 429.566 255.645 429.566 255.645C429.566 255.645 449.766 266.336 457.979 273.615C466.2 271.288 467.692 241.257 467.692 241.257Z" fill="#FFD600"/>
<path d="M467.685 241.257C467.685 241.257 466.198 271.281 457.988 273.624C449.759 266.337 429.572 255.64 429.572 255.64C429.572 255.64 430.514 253.883 431.907 251.386C438.084 255.33 448.516 261.6 451.077 260.963C454.768 260.067 456.161 254.813 456.161 254.813C456.161 254.813 445.616 245.891 446.124 235.814C457.498 240.775 467.685 241.257 467.685 241.257Z" fill="#E4C012"/>
<path d="M444.193 322.871C444.193 322.871 486.078 330.465 495.669 330.019C505.26 329.572 519.62 328.294 518.569 326.445C506.043 304.411 498.451 245.53 492.873 244.414C487.294 243.297 466.524 240.329 465.643 241.54C465.347 241.947 461.683 245.255 459.367 257.514C458.455 262.346 451.084 268.256 450.09 273.615C449.523 276.673 455.562 289.667 455.002 292.707C451.617 311.068 444.193 322.871 444.193 322.871Z" fill="#FFD600"/>
<path d="M518.566 326.438C514.687 319.616 511.279 309.264 508.266 298.17C490.678 282.271 471.979 257.087 463.298 245.029C462.037 247.441 460.53 251.334 459.363 257.518C458.459 262.341 451.077 268.249 450.098 273.624C449.514 276.673 455.558 289.661 454.994 292.71C451.623 311.073 444.185 322.872 444.185 322.872C444.185 322.872 486.083 330.469 495.668 330.021C505.253 329.573 519.621 328.298 518.566 326.438ZM496.402 318.583C494.18 319.943 487.137 317.05 488.437 319.272C489.717 321.494 494.048 324.973 490.395 325.266C486.761 325.559 453.581 321.907 455.332 319.185C457.103 316.447 467.441 311.485 462.902 311.451C458.364 311.417 453.073 314.707 456.048 309.866C459.005 305.009 465.972 292.813 462.902 290.677C459.852 288.541 454.504 284.148 453.054 277.913C451.585 271.677 467.215 268.163 467.215 268.163C467.478 269.558 493.465 305.457 495.611 309.591C497.777 313.742 490.301 310.211 492.561 313.329C494.802 316.447 498.624 317.239 496.402 318.583Z" fill="#E4C012"/>
<path d="M493.747 244.775C493.747 244.775 503.515 248.778 505.384 251.524C507.253 254.269 525.927 295.83 525.108 301.82C524.29 307.81 519.124 317.223 508.347 315.101C497.569 312.98 490.842 285.646 490.842 285.646L484.75 262.381C484.75 262.381 486.516 250.131 493.747 244.775Z" fill="#FFD600"/>
<path d="M491.109 244.087C484.613 240.963 471.082 239.458 462.912 240.697C462.143 243.882 460.777 251.833 472.107 255.15C483.12 258.368 488.973 248.581 491.109 244.087Z" fill="#E06020"/>
<path d="M470.503 240.264C470.847 238.696 472.16 229.863 472.087 229.604L486.593 220.929L484.58 241.94C485.503 242.308 487.606 242.209 490.404 243.659C482.9 255.393 466.681 257.836 463.839 240.572C466.513 240.027 468.91 240.636 470.503 240.264Z" fill="#FAB19E"/>
<path d="M470.848 238.696C470.889 237.326 471.539 233.424 471.87 231.204C474.827 230.75 479.983 229.656 482.067 227.188C482.067 227.188 482.81 238.536 470.848 238.696Z" fill="#EBA090"/>
<path d="M490.084 214.948C482.698 244.647 451.801 238.469 467.117 205.378C467.266 209.633 485.037 210.244 485.037 210.244C485.475 213.496 487.3 215.293 490.084 214.948Z" fill="#FAB19E"/>
<path d="M484.607 226.424L487.867 218.299C496.654 217.132 490.533 228.394 484.607 226.424Z" fill="#FAB19E"/>
<path d="M489.88 221.182C481.955 222.238 492.555 225.187 488.293 222.319C488.293 222.319 491.043 221.374 489.88 221.182ZM473.137 211.913C473.219 212.673 470.469 213.29 467.498 212.362C464.528 211.434 472.95 210.169 473.137 211.913ZM479.157 213.877C479.651 213.26 482.15 214.478 483.687 216.98C485.225 219.483 478.025 215.291 479.157 213.877ZM471.377 218.123C472.254 217.628 472.098 216.278 470.697 214.868C470.068 213.603 464.171 214.66 467.418 215.793C471.338 214.615 469.454 218.275 471.377 218.123ZM480.521 221.081C481.399 220.586 481.243 219.237 479.841 217.827C479.214 216.561 473.318 217.62 476.562 218.751C480.482 217.573 478.598 221.233 480.521 221.081ZM474.162 218.989C466.384 227.078 477.921 224.721 472.136 223.095C472.136 223.095 474.585 219.06 474.162 218.989ZM472.985 228.178C472.661 226.869 470.627 228.82 469.798 226.96C468.413 226.917 468.648 229.33 470.325 229.866C471.714 230.228 472.988 229.377 472.985 228.178Z" fill="#3A3A60"/>
<path d="M519.848 292.778C519.848 292.778 525.107 299.456 525.108 301.82C525.112 308.888 518.039 312.224 516.395 312.751C514.751 313.277 513.354 312.074 512.696 312.3C512.039 312.525 510.148 314.073 509.244 312.885C508.34 311.698 503.244 311.247 501.846 309.593C500.449 307.938 495.496 301.867 495.62 298.088C495.734 294.607 515.738 289.723 519.848 292.778Z" fill="#C9A923"/>
<path d="M468.792 244.852C468.792 244.852 522.162 292.214 523.147 297.331C524.704 305.423 517.834 316.149 504.526 309.605C497.849 306.321 460.329 250.136 460.329 250.136L468.792 244.852Z" fill="#FAB19E"/>
<path d="M467.317 239.151C467.317 239.151 462.826 231.028 461.275 230.856L459.918 232.201C459.918 232.201 461.326 237.129 461.371 237.573C461.416 238.017 460.652 240.187 462.824 242.408C464.995 244.629 468.185 241.017 467.317 239.151Z" fill="#DB8F82"/>
<path d="M450.484 239.869C450.655 239.223 453.106 239.539 453.106 239.539C453.106 239.539 452.534 238.329 453.793 237.794C454.532 237.48 455.658 237.898 455.658 237.898C455.658 237.898 455.12 236.386 456.463 235.629C457.806 234.872 459.026 236.051 459.026 236.051C459.026 236.051 458.736 233.742 461.174 233.849C462.871 233.923 463.435 234.263 464.003 235.206C465.512 235.87 469.732 242.936 468.792 244.852C470.103 246.557 471.927 249.228 471.927 249.228L463.622 254.529L460.329 250.137L452.349 244.469C452.349 244.469 450.428 241.348 450.484 239.869Z" fill="#FAB19E"/>
<path d="M428.137 231.938C427.933 229.268 429.786 226.902 432.303 226.124C434.82 225.347 438.996 225.428 440.17 228.911C441.346 232.393 439.677 233.89 437.66 234.437C435.644 234.984 433.07 234.537 432.288 233.562C431.505 232.588 431.184 231.678 431.853 230.641C432.521 229.605 433.355 229.076 434.941 229.211C436.526 229.347 437.141 230.69 436.984 231.161C436.827 231.633 435.945 231.917 435.785 231.243C435.626 230.569 434.659 230.027 433.669 230.591C432.679 231.154 432.633 232.929 434.502 233.394C436.371 233.859 439.303 232.464 439.038 230.757C438.738 228.828 437.819 227.736 435.116 227.363C432.414 226.99 428.888 229.707 429.866 232.373C430.844 235.04 432.648 235.761 438.173 235.455C442.927 235.193 457.994 231.364 465.283 229.451C465.302 229.565 465.327 229.679 465.351 229.79C465.404 230.039 465.467 230.285 465.521 230.533C465.574 230.778 465.602 231.021 465.624 231.269C465.626 231.294 465.629 231.319 465.631 231.344C460.309 232.757 452.231 234.775 449.32 235.337C445.256 236.122 436.85 237.618 433.446 237.109C430.255 236.632 428.341 234.608 428.137 231.938Z" fill="#DFE4EF"/>
<path d="M438.451 226.641C438.38 226.593 438.307 226.548 438.233 226.505C438.231 226.504 438.23 226.504 438.229 226.503C438.154 226.459 438.079 226.418 438.002 226.379C437.912 226.964 437.706 227.532 437.391 228.049L437.391 228.049C437.533 228.131 437.664 228.219 437.784 228.313C438.107 227.793 438.333 227.227 438.451 226.641ZM429.849 230.54C429.255 230.68 428.681 230.883 428.137 231.142C428.131 231.227 428.126 231.312 428.124 231.397C428.124 231.397 428.124 231.398 428.124 231.399C428.122 231.484 428.122 231.57 428.124 231.657L428.124 231.657C428.631 231.396 429.171 231.188 429.731 231.036C429.743 230.953 429.759 230.869 429.779 230.787L429.78 230.786C429.799 230.704 429.823 230.621 429.849 230.54ZM438.83 231.76C438.815 231.787 438.799 231.813 438.783 231.839C439.344 231.895 439.912 231.899 440.474 231.848C440.506 231.702 440.529 231.55 440.543 231.389L440.544 231.389C440.027 231.443 439.505 231.45 438.987 231.407C438.967 231.472 438.941 231.536 438.913 231.599C438.907 231.612 438.901 231.624 438.895 231.637C438.883 231.664 438.869 231.69 438.854 231.717C438.846 231.732 438.838 231.746 438.83 231.76ZM435.028 234.637C435.191 234.653 435.356 234.664 435.522 234.669C435.489 234.273 435.456 233.878 435.423 233.482C435.255 233.488 435.09 233.482 434.929 233.466C434.962 233.857 434.995 234.247 435.028 234.637ZM432.533 235.105C432.639 235.758 432.799 236.402 433.011 237.031C433.077 237.045 433.145 237.058 433.212 237.07C433.29 237.084 433.367 237.097 433.447 237.109C433.482 237.114 433.518 237.119 433.554 237.124C433.335 236.512 433.169 235.885 433.056 235.25L433.055 235.25C432.964 235.228 432.874 235.206 432.787 235.181C432.787 235.181 432.787 235.182 432.787 235.181C432.7 235.157 432.615 235.132 432.533 235.105ZM445.378 234.274C445.205 234.31 445.033 234.346 444.862 234.381C445.268 234.912 445.7 235.426 446.158 235.92C446.345 235.888 446.529 235.855 446.71 235.823C446.239 235.327 445.794 234.81 445.378 234.274ZM438.174 235.456C438.14 235.458 438.108 235.459 438.074 235.461C438.471 235.974 438.906 236.464 439.371 236.927L439.372 236.927C439.572 236.905 439.773 236.881 439.975 236.857C439.499 236.405 439.056 235.925 438.649 235.421C438.575 235.428 438.502 235.433 438.432 235.439C438.414 235.44 438.397 235.441 438.38 235.442C438.309 235.447 438.24 235.452 438.174 235.456ZM432.039 230.374C431.975 230.459 431.913 230.548 431.853 230.641C431.824 230.686 431.799 230.731 431.774 230.776C432.239 230.867 432.694 231.002 433.132 231.176C433.199 231.034 433.29 230.904 433.402 230.794C432.962 230.615 432.506 230.475 432.039 230.374ZM435.81 231.322C436.133 230.95 436.423 230.555 436.677 230.141C436.585 230.014 436.472 229.89 436.338 229.775C436.118 230.15 435.868 230.509 435.589 230.85C435.684 230.969 435.752 231.103 435.786 231.243C435.792 231.271 435.801 231.298 435.81 231.322ZM430.721 226.877C431.304 227.168 431.857 227.505 432.375 227.885C432.455 227.845 432.536 227.808 432.618 227.772L432.618 227.771C432.7 227.736 432.782 227.702 432.865 227.67C432.34 227.268 431.776 226.91 431.181 226.598C431.023 226.684 430.87 226.778 430.721 226.877Z" fill="#929ED3"/>
<path d="M434.544 225.736C434.544 225.736 434.545 225.736 434.546 225.736C434.636 225.731 434.727 225.729 434.817 225.727C434.817 225.727 434.817 225.727 434.817 225.727C435.118 226.264 435.347 226.835 435.498 227.424C435.498 227.423 435.498 227.424 435.497 227.423C435.439 227.413 435.379 227.403 435.318 227.394C435.254 227.383 435.189 227.373 435.121 227.364C435.12 227.364 435.118 227.364 435.117 227.363C435.068 227.357 435.02 227.351 434.971 227.347C434.81 226.791 434.576 226.257 434.275 225.753C434.364 225.746 434.453 225.74 434.544 225.736ZM430.623 229.22C429.973 229.142 429.314 229.139 428.663 229.211C428.701 229.132 428.742 229.054 428.784 228.976C428.785 228.974 428.786 228.971 428.788 228.969C428.83 228.89 428.875 228.813 428.922 228.737V228.736C429.618 228.683 430.322 228.711 431.011 228.819C430.873 228.947 430.743 229.081 430.623 229.22ZM435.096 235.501C435.273 235.508 435.457 235.513 435.646 235.517C435.966 236.079 436.314 236.629 436.686 237.163C436.593 237.169 436.5 237.174 436.409 237.178C436.406 237.179 436.402 237.179 436.399 237.179C436.308 237.183 436.217 237.188 436.127 237.191C436.127 237.191 436.126 237.191 436.126 237.191C435.754 236.642 435.409 236.078 435.09 235.5C435.092 235.5 435.094 235.5 435.096 235.501ZM448.166 233.67C448.603 234.234 449.076 234.773 449.584 235.285C449.583 235.285 449.583 235.286 449.582 235.286C449.545 235.293 449.508 235.3 449.472 235.308C449.422 235.318 449.371 235.328 449.324 235.337C449.322 235.337 449.322 235.337 449.32 235.338C449.227 235.356 449.13 235.374 449.032 235.393C448.539 234.881 448.079 234.344 447.654 233.783C447.655 233.783 447.655 233.783 447.655 233.783C447.824 233.746 447.995 233.708 448.166 233.67ZM438.868 229.984C438.824 229.834 438.773 229.69 438.716 229.553C439.247 229.454 439.749 229.25 440.185 228.957C440.186 228.958 440.186 228.958 440.186 228.959C440.238 229.116 440.284 229.269 440.324 229.418C439.883 229.687 439.387 229.88 438.868 229.984ZM430.034 232.791C430.07 232.873 430.107 232.954 430.146 233.032C430.147 233.035 430.149 233.038 430.15 233.041C430.19 233.12 430.23 233.198 430.272 233.274C429.897 233.818 429.591 234.401 429.361 235.008C429.361 235.008 429.361 235.008 429.361 235.008C429.239 234.863 429.126 234.712 429.021 234.555C429.286 233.935 429.626 233.343 430.034 232.791ZM442.212 234.897C442.601 235.394 443.02 235.87 443.473 236.32C443.487 236.333 443.501 236.347 443.515 236.36C443.325 236.39 443.135 236.42 442.944 236.449C442.944 236.449 442.943 236.449 442.943 236.449C442.492 235.986 442.07 235.5 441.682 234.992C441.682 234.992 441.683 234.992 441.683 234.992C441.856 234.961 442.032 234.93 442.212 234.897ZM434.941 229.212C434.957 229.213 434.972 229.215 434.987 229.217C435.057 229.622 435.065 230.035 435.011 230.443C434.862 230.389 434.7 230.358 434.528 230.357C434.576 229.968 434.563 229.575 434.486 229.191C434.63 229.191 434.782 229.198 434.941 229.212ZM433.334 232.717C432.948 232.963 432.612 233.278 432.353 233.637C432.33 233.612 432.308 233.588 432.288 233.563C432.205 233.459 432.128 233.356 432.056 233.254C432.343 232.894 432.695 232.581 433.1 232.329C433.155 232.464 433.233 232.594 433.334 232.717ZM437.924 234.359C437.576 233.986 437.283 233.573 437.055 233.13C437.207 233.07 437.353 233.002 437.495 232.929C437.728 233.385 438.035 233.807 438.407 234.18C438.25 234.247 438.088 234.306 437.924 234.359Z" fill="#929ED3"/>
<path d="M465.494 231.675C465.308 230.931 465.122 230.188 464.935 229.445C464.918 229.373 464.97 229.321 465.047 229.328C465.07 229.33 465.093 229.332 465.115 229.334C465.129 229.324 465.145 229.316 465.168 229.315C466.547 229.253 467.919 229.112 469.276 228.894C469.339 228.883 469.373 228.924 469.376 228.97C469.388 228.98 469.399 228.993 469.405 229.013C469.532 229.464 469.66 229.916 469.788 230.368C469.801 230.416 469.779 230.466 469.726 230.482C468.357 230.899 466.988 231.317 465.62 231.734C465.573 231.748 465.506 231.722 465.494 231.675Z" fill="#E4C012"/>
<path d="M466.021 231.62C466.021 231.62 465.671 229.088 465.306 229.077C464.94 229.067 448.858 232.814 448.761 233.198C448.663 233.581 449.455 235.534 449.648 235.643C449.841 235.751 465.305 231.973 465.644 231.944C465.982 231.915 466.021 231.62 466.021 231.62Z" fill="#E06020"/>
<path d="M455.068 244.129C456.049 242.756 454.932 241.786 454.932 241.786C454.932 241.786 456.58 243.873 457.928 242.667C459.335 241.409 457.186 239.256 457.186 239.256C457.186 239.256 459.806 241.537 461.176 240.719C462.26 240.072 460.361 236.888 460.361 236.888C460.361 236.888 462.495 239.005 463.871 238.171C465.357 237.268 464.003 235.205 464.003 235.205C464.003 235.205 459.41 230.011 457.542 229.322C456.977 229.113 455.167 229.929 455.251 230.516C455.323 231.025 458.083 234.544 458.083 234.544C458.083 234.544 453.877 229.519 453.241 229.446C452.839 229.399 451.399 230.552 451.342 230.927C451.26 231.46 454.985 236.499 454.985 236.499C454.985 236.499 453.408 235.24 452.821 235.322C452.491 235.368 451.326 236.406 451.236 236.663C451.058 237.176 452.277 238.576 452.277 238.576C452.277 238.576 451.205 238.105 450.755 238.342C450.484 238.483 450.184 238.699 449.914 239.029C449.109 240.009 453.163 246.796 455.068 244.129Z" fill="#FAB19E"/>
<path d="M460.104 236.958C459.883 237.108 459.144 236.538 458.453 235.685C457.763 234.832 457.384 234.019 457.605 233.869C457.827 233.719 458.566 234.289 459.256 235.142C459.947 235.995 460.326 236.808 460.104 236.958Z" fill="#DB8F82"/>
<path d="M456.753 238.654C456.53 238.803 455.945 238.418 455.446 237.795C454.948 237.172 454.723 236.545 454.945 236.396C455.168 236.247 455.753 236.632 456.252 237.255C456.751 237.879 456.975 238.505 456.753 238.654Z" fill="#DB8F82"/>
<path d="M454.224 240.94C454.004 241.091 453.349 240.635 452.763 239.92C452.177 239.205 451.88 238.503 452.101 238.352C452.321 238.2 452.976 238.656 453.562 239.372C454.149 240.086 454.445 240.788 454.224 240.94Z" fill="#DB8F82"/>
<path d="M152.61 198.598C152.062 201.235 151.224 203.964 149.429 206.135C149.214 206.394 148.47 207.125 149.361 206.285C150.259 205.44 149.538 206.102 149.293 206.286C148.972 206.526 148.631 206.745 148.274 206.938C147.274 207.478 146.157 207.802 145.004 207.924C142.59 208.18 140.206 207.593 137.801 207.507C135.221 207.414 133.22 208.174 131.429 209.855C130.352 210.865 129.385 211.86 128.745 213.168C128.014 214.662 127.671 216.287 127.478 217.907C127.536 217.426 128.834 217.065 128.894 216.568C129.062 215.147 129.346 213.729 129.906 212.391C130.204 211.679 130.579 210.992 131.053 210.364C131.149 210.239 131.246 210.115 131.349 209.995C130.913 210.503 131.199 210.14 131.387 210.043C131.705 209.88 131.991 209.673 132.319 209.522C134.514 208.511 137.006 208.855 139.352 209.117C141.798 209.39 144.308 209.529 146.55 208.436C148.074 207.693 149.329 206.445 150.436 205.259C152.513 203.034 153.439 200.081 154.025 197.259C153.92 197.763 152.717 198.079 152.61 198.598Z" fill="#FFD600"/>
<path d="M426.743 106.203C428.811 107.352 431.063 108.307 433.499 108.512C433.788 108.537 434.194 108.462 434.456 108.554C434.167 108.561 433.877 108.568 433.588 108.575C433.815 108.556 434.04 108.531 434.264 108.499C434.656 108.444 435.045 108.37 435.429 108.28C436.435 108.046 437.46 107.723 438.38 107.28C440.048 106.476 441.381 105.071 442.217 103.541C442.854 102.375 443.496 100.602 442.518 99.4313C442.042 98.8601 441.262 98.5304 440.513 98.3731C440.297 98.3274 440.041 98.3366 439.834 98.2781C440.824 98.558 441.165 98.1267 440.412 98.318C439.946 98.4364 439.511 98.6518 439.195 98.9923C438.057 100.22 438.557 102.408 439.662 103.513C440.314 104.164 441.236 104.536 442.17 104.7C442.333 104.729 442.498 104.751 442.663 104.768C442.746 104.776 442.83 104.783 442.913 104.79C443.655 104.811 443.546 104.825 442.586 104.83C443.231 104.669 443.925 104.648 444.578 104.481C446.524 103.982 448.274 103.084 449.443 101.536C452.631 97.3149 450.549 92.1103 448.461 87.9267C448.556 88.1176 450.255 87.6513 450.362 87.8638C452.545 92.2373 454.786 98.0714 450.723 102.192C449.175 103.763 446.803 104.538 444.548 104.761C442.61 104.952 440.187 105.15 438.482 104.128C436.819 103.132 435.807 100.228 437.513 98.8551C438.196 98.3042 439.102 98.2727 439.964 98.2405C440.936 98.2036 441.913 98.1331 442.851 98.423C444.98 99.0813 445.207 100.863 444.528 102.602C443.765 104.557 442.125 106.401 440.067 107.316C437.879 108.288 435.604 108.554 433.207 108.61C430.158 108.68 427.421 107.699 424.843 106.265C425.288 106.513 426.284 105.947 426.743 106.203Z" fill="#FFD600"/>
<path d="M356.871 95.4C357.62 95.5821 358.372 95.7484 359.133 95.8832C359.684 95.9808 360.236 96.0451 360.79 96.126C360.894 96.1414 361.486 96.1895 360.883 96.1488C360.06 96.0935 361.85 96.1184 361.631 96.1268C363.29 96.0627 364.949 95.759 366.443 95.0811C369.421 93.7306 370.883 91.1832 371.901 88.4202C372.863 85.8082 373.665 82.9757 376.123 81.1715C377.886 79.8782 380.115 79.3609 382.343 79.3252C385.756 79.2701 389.151 79.776 392.392 80.7312C391.68 80.5216 390.789 80.8061 390.069 80.5937C389.115 80.3131 388.155 80.0551 387.179 79.8495C386.687 79.7463 386.193 79.6538 385.696 79.5783C385.472 79.5442 385.248 79.5146 385.023 79.4867C384.806 79.4573 384.589 79.4326 384.371 79.4134C384.698 79.4312 385.027 79.4496 385.355 79.4679C384.165 79.2419 382.522 79.5849 381.374 79.9066C378.935 80.5911 377.076 82.1712 375.953 84.2534C374.602 86.7578 374.181 89.6154 372.571 92.0139C370.772 94.6932 367.665 96.0509 364.3 96.247C361.066 96.4365 357.667 96.0208 354.548 95.2626C355.28 95.4405 356.132 95.2207 356.871 95.4Z" fill="#B9C1E1"/>
<path d="M300.084 386.915C300.64 387.409 301.207 387.891 301.798 388.348C302.227 388.679 302.675 388.983 303.114 389.301C303.197 389.361 303.687 389.668 303.183 389.363C302.495 388.946 304.043 389.768 303.848 389.678C305.329 390.364 306.939 390.841 308.604 390.918C311.923 391.072 314.56 389.504 316.925 387.549C319.161 385.701 321.374 383.588 324.483 383.114C326.712 382.775 328.933 383.321 330.896 384.286C333.902 385.764 336.593 387.723 338.91 390.006C338.401 389.505 337.471 389.355 336.957 388.848C336.275 388.176 335.575 387.522 334.834 386.906C334.461 386.596 334.079 386.295 333.685 386.006C333.508 385.876 333.328 385.75 333.147 385.625C332.974 385.503 332.797 385.384 332.617 385.27C332.894 385.432 333.17 385.595 333.446 385.757C332.53 385.028 330.913 384.592 329.74 384.36C327.246 383.866 324.78 384.413 322.687 385.727C320.17 387.307 318.276 389.612 315.59 390.984C312.588 392.517 309.152 392.311 306.112 390.977C303.189 389.696 300.447 387.813 298.131 385.757C298.674 386.239 299.535 386.428 300.084 386.915Z" fill="#C9A923"/>
<path d="M394.822 130.993C396.314 135.081 400.147 138.297 404.728 139.304C404.781 139.315 404.74 140.28 404.74 140.368C404.74 140.452 404.692 141.425 404.728 141.433C400.147 140.426 396.315 137.21 394.822 133.122C394.716 132.833 394.811 132.362 394.811 132.058C394.811 131.807 394.811 131.556 394.814 131.305C394.815 131.22 394.85 131.07 394.822 130.993Z" fill="#3C5FAD"/>
<path d="M140.751 523.543C145.457 523.318 149.867 520.797 152.15 517.027C152.176 516.983 153.181 517.277 153.275 517.3C153.363 517.322 154.375 517.624 154.393 517.595C152.11 521.365 147.7 523.886 142.994 524.111C142.661 524.127 142.191 523.918 141.87 523.837C141.605 523.77 141.341 523.703 141.078 523.633C140.988 523.61 140.84 523.539 140.751 523.543Z" fill="#B9C1E1"/>
<path d="M369.519 531.283C374.225 531.057 378.635 528.536 380.918 524.766C380.944 524.723 381.949 525.016 382.043 525.04C382.131 525.062 383.143 525.364 383.161 525.334C380.878 529.104 376.468 531.626 371.762 531.85C371.429 531.866 370.959 531.658 370.638 531.577C370.374 531.51 370.109 531.443 369.846 531.373C369.756 531.349 369.608 531.278 369.519 531.283Z" fill="#B9C1E1"/>
<path d="M178.997 123.857C176.628 127.583 176.522 132.339 178.722 136.15C178.747 136.194 177.929 136.803 177.856 136.861C177.788 136.917 176.957 137.526 176.975 137.556C174.775 133.745 174.881 128.989 177.25 125.263C177.418 124.999 177.866 124.753 178.116 124.552C178.322 124.386 178.528 124.221 178.736 124.057C178.807 124.002 178.953 123.927 178.997 123.857Z" fill="#FFD600"/>
<path d="M364.538 145.386C361.276 148.497 356.308 149.902 351.697 149.02C351.643 149.009 351.229 149.897 351.188 149.977C351.149 150.053 350.737 150.951 350.701 150.944C355.312 151.827 360.28 150.421 363.542 147.31C363.772 147.089 363.907 146.627 364.05 146.352C364.167 146.126 364.284 145.899 364.399 145.671C364.438 145.593 364.476 145.444 364.538 145.386Z" fill="#FFD600"/>
<path d="M376.438 435.286C373.177 438.397 368.209 439.802 363.597 438.92C363.544 438.909 363.13 439.797 363.088 439.877C363.049 439.953 362.638 440.851 362.601 440.844C367.213 441.727 372.181 440.321 375.442 437.21C375.673 436.989 375.808 436.527 375.95 436.252C376.067 436.026 376.185 435.799 376.299 435.571C376.338 435.493 376.376 435.344 376.438 435.286Z" fill="#FFD600"/>
<path d="M303.621 237.616C299.123 238.9 295.534 242.342 294.343 246.512C294.329 246.56 293.276 246.504 293.179 246.502C293.088 246.501 292.025 246.438 292.016 246.471C293.207 242.301 296.796 238.858 301.294 237.574C301.612 237.483 302.125 237.578 302.457 237.585C302.731 237.59 303.006 237.595 303.28 237.602C303.373 237.605 303.536 237.64 303.621 237.616Z" fill="#DFE4EF"/>
<path d="M466.646 154.892C463.948 155.034 461.211 155.424 459.257 156.738C459.023 156.896 458.392 157.463 459.11 156.779C459.832 156.091 459.269 156.646 459.123 156.84C458.93 157.094 458.764 157.369 458.63 157.662C458.252 158.48 458.129 159.433 458.227 160.443C458.431 162.558 459.526 164.757 460.093 166.909C460.7 169.217 460.287 170.9 458.853 172.274C457.99 173.101 457.123 173.831 455.858 174.23C454.413 174.685 452.753 174.778 451.066 174.738C451.567 174.75 451.694 173.641 452.212 173.653C453.69 173.689 455.142 173.621 456.455 173.298C457.154 173.126 457.811 172.882 458.384 172.542C458.499 172.474 458.612 172.403 458.719 172.327C458.265 172.649 458.595 172.442 458.66 172.287C458.771 172.025 458.935 171.798 459.031 171.526C459.673 169.704 458.815 167.441 458.073 165.318C457.3 163.105 456.657 160.853 457.377 159C457.867 157.741 458.946 156.788 459.99 155.957C461.946 154.399 464.905 153.961 467.791 153.808C467.276 153.835 467.176 154.864 466.646 154.892Z" fill="#3C5FAD"/>
<path d="M334.49 537.65C334.531 535.179 334.306 532.653 333.015 530.774C332.861 530.55 332.289 529.933 332.982 530.638C333.68 531.346 333.116 530.793 332.914 530.645C332.652 530.45 332.364 530.279 332.054 530.135C331.189 529.731 330.16 529.549 329.051 529.564C326.731 529.596 324.253 530.435 321.866 530.795C319.305 531.181 317.501 530.681 316.107 529.273C315.268 528.426 314.535 527.581 314.193 526.398C313.802 525.046 313.822 523.525 313.988 521.99C313.939 522.445 315.138 522.642 315.087 523.114C314.94 524.46 314.908 525.789 315.165 527.01C315.302 527.661 315.519 528.278 315.849 528.826C315.915 528.936 315.984 529.044 316.059 529.147C315.741 528.709 315.943 529.025 316.107 529.096C316.384 529.216 316.62 529.382 316.91 529.49C318.85 530.208 321.379 529.59 323.747 529.068C326.217 528.524 328.719 528.102 330.687 528.894C332.024 529.433 332.985 530.487 333.815 531.5C335.37 533.398 335.632 536.129 335.588 538.774C335.597 538.302 334.482 538.136 334.49 537.65Z" fill="#3C5FAD"/>
<path d="M353.403 270.622C350.706 270.764 347.969 271.154 346.015 272.468C345.781 272.626 345.15 273.192 345.868 272.509C346.59 271.82 346.027 272.375 345.881 272.57C345.688 272.824 345.522 273.098 345.388 273.391C345.011 274.21 344.887 275.163 344.985 276.173C345.189 278.288 346.284 280.487 346.851 282.639C347.458 284.947 347.044 286.629 345.61 288.004C344.748 288.83 343.881 289.561 342.616 289.96C341.171 290.414 339.511 290.508 337.825 290.468C338.325 290.48 338.453 289.371 338.97 289.383C340.448 289.419 341.9 289.351 343.212 289.028C343.912 288.856 344.569 288.612 345.142 288.272C345.257 288.203 345.369 288.133 345.477 288.056C345.023 288.379 345.352 288.171 345.418 288.016C345.529 287.755 345.693 287.527 345.789 287.255C346.43 285.433 345.572 283.171 344.831 281.048C344.057 278.835 343.414 276.583 344.134 274.73C344.624 273.471 345.704 272.517 346.747 271.687C348.703 270.129 351.663 269.691 354.549 269.538C354.033 269.565 353.934 270.594 353.403 270.622Z" fill="#3C5FAD"/>
<path d="M320.222 82.5368C317.803 82.5775 315.341 82.8725 313.163 83.8914C312.905 84.012 312.605 84.2737 312.331 84.3246C312.571 84.1773 312.811 84.0295 313.051 83.882C312.871 84.0084 312.695 84.1403 312.524 84.2769C312.225 84.5151 311.941 84.7681 311.669 85.0315C310.956 85.7225 310.278 86.497 309.76 87.3214C308.821 88.8166 308.517 90.6559 308.705 92.3573C308.849 93.6547 309.343 95.4669 310.854 95.9776C311.59 96.227 312.442 96.1238 313.167 95.8902C313.376 95.8229 313.587 95.6903 313.796 95.638C312.796 95.8864 312.76 96.4171 313.285 95.8874C313.609 95.5591 313.85 95.1646 313.918 94.7221C314.162 93.1276 312.46 91.5237 310.88 91.1313C309.949 90.8997 308.952 91.0369 308.066 91.3555C307.913 91.4112 307.76 91.4733 307.61 91.5392C307.536 91.5736 307.461 91.6085 307.386 91.6431C306.747 91.9883 306.832 91.9236 307.64 91.4494C307.189 91.9014 306.615 92.2588 306.161 92.7193C304.808 94.0928 303.856 95.7081 303.773 97.5882C303.548 102.715 308.35 106.093 312.561 108.606C312.369 108.491 311.206 109.717 310.992 109.589C306.59 106.962 301.285 103.13 302.307 97.6606C302.697 95.5753 304.247 93.7597 306.023 92.4677C307.547 91.3581 309.479 90.0054 311.517 90.0341C313.505 90.0621 316.058 92.02 315.42 94.0153C315.164 94.8152 314.417 95.285 313.708 95.7339C312.909 96.2404 312.124 96.7783 311.162 96.9922C308.979 97.478 307.744 96.0835 307.301 94.2821C306.803 92.257 307.11 89.8962 308.314 88.1165C309.594 86.2249 311.36 84.8869 313.353 83.6671C315.888 82.1147 318.774 81.6048 321.791 81.554C321.269 81.5622 320.759 82.5276 320.222 82.5368Z" fill="#FFD600"/>
<path d="M175.93 333.162C177.133 335.081 178.12 337.165 178.282 339.398C178.302 339.663 178.21 340.032 178.303 340.274C178.318 340.01 178.333 339.745 178.349 339.481C178.323 339.688 178.289 339.893 178.249 340.097C178.178 340.454 178.088 340.808 177.98 341.157C177.698 342.071 177.319 343 176.812 343.83C175.891 345.335 174.322 346.518 172.629 347.244C171.338 347.797 169.384 348.339 168.13 347.415C167.518 346.965 167.177 346.244 167.024 345.554C166.98 345.356 166.997 345.122 166.938 344.931C167.219 345.844 166.739 346.145 166.967 345.461C167.108 345.038 167.355 344.646 167.735 344.365C169.105 343.355 171.484 343.869 172.663 344.906C173.358 345.519 173.741 346.372 173.897 347.231C173.924 347.38 173.944 347.532 173.959 347.683C173.965 347.759 173.971 347.836 173.976 347.912C173.98 348.591 173.998 348.491 174.028 347.614C173.835 348.2 173.795 348.834 173.596 349.427C173.002 351.194 171.976 352.771 170.255 353.801C165.561 356.609 159.926 354.574 155.407 352.558C155.613 352.65 155.061 354.192 155.29 354.295C160.014 356.402 166.333 358.599 170.939 354.989C172.695 353.612 173.602 351.463 173.903 349.406C174.162 347.64 174.439 345.429 173.365 343.844C172.318 342.297 169.171 341.298 167.627 342.824C167.008 343.435 166.95 344.262 166.894 345.05C166.829 345.937 166.727 346.829 167.02 347.694C167.685 349.658 169.627 349.911 171.544 349.334C173.701 348.685 175.757 347.232 176.809 345.373C177.926 343.398 178.275 341.324 178.396 339.134C178.551 336.347 177.548 333.819 176.047 331.425C176.306 331.839 175.662 332.735 175.93 333.162Z" fill="#FFD600"/>
<path d="M290.609 530.807C287.292 527.746 282.299 526.416 277.704 527.369C277.651 527.38 277.221 526.499 277.178 526.419C277.137 526.344 276.71 525.452 276.673 525.46C281.268 524.507 286.261 525.837 289.578 528.898C289.813 529.115 289.957 529.575 290.104 529.848C290.226 530.073 290.347 530.298 290.466 530.524C290.506 530.601 290.547 530.749 290.609 530.807Z" fill="#C9A923"/>
<path d="M511.138 531.146C515.699 532.226 520.734 531.035 524.151 528.068C524.191 528.034 525.053 528.59 525.134 528.638C525.211 528.684 526.077 529.251 526.104 529.227C522.686 532.194 517.652 533.385 513.09 532.305C512.767 532.228 512.387 531.9 512.108 531.734C511.878 531.597 511.648 531.461 511.419 531.322C511.342 531.274 511.224 531.166 511.138 531.146Z" fill="#FFD600"/>
<path d="M203.901 539.109C208.369 540.478 213.482 539.611 217.118 536.869C217.16 536.837 217.977 537.447 218.054 537.501C218.128 537.551 218.949 538.172 218.977 538.15C215.342 540.892 210.228 541.758 205.761 540.39C205.444 540.293 205.09 539.941 204.824 539.758C204.605 539.607 204.386 539.457 204.168 539.303C204.095 539.251 203.985 539.136 203.901 539.109Z" fill="#FFD600"/>
<path d="M411.497 284.664C409.889 288.715 410.706 293.413 413.611 296.807C413.644 296.846 412.956 297.578 412.896 297.647C412.839 297.713 412.141 298.448 412.163 298.475C409.259 295.081 408.442 290.383 410.05 286.332C410.165 286.044 410.558 285.73 410.765 285.492C410.935 285.295 411.106 285.098 411.279 284.903C411.338 284.837 411.467 284.74 411.497 284.664Z" fill="#FFD600"/>
</svg>
